<svg width="30" height="30" viewBox="0 0 30 30" fill="none" xmlns="http://www.w3.org/2000/svg">
<path d="M25.5423 4.35654C22.7241 1.54884 18.975 0.00160218 14.9849 0C11.0037 0 7.24869 1.54587 4.41193 4.35287C1.57013 7.16469 0.00366211 10.9014 0 14.8611V14.8656V14.8684C0.000457764 17.265 0.630112 19.6827 1.82533 21.8896L0.0409699 30L8.24478 28.1339C10.3226 29.1811 12.6409 29.7331 14.9792 29.734H14.9851C18.9656 29.734 22.7206 28.1879 25.5579 25.3807C28.4022 22.5666 29.9693 18.8347 29.9712 14.8725C29.9723 10.9383 28.3997 7.2036 25.5423 4.35654ZM14.9849 27.3926H14.9796C12.8801 27.3917 10.7998 26.8645 8.96393 25.8678L8.57597 25.6572L3.1208 26.898L4.30573 21.5128L4.0773 21.1189C2.94159 19.1604 2.34146 16.9984 2.34146 14.8659C2.34581 7.96349 8.01704 2.34146 14.9844 2.34146C18.3504 2.34283 21.5131 3.64769 23.8898 6.01524C26.3024 8.41942 27.6306 11.5647 27.6295 14.8718C27.6267 21.7758 21.9543 27.3926 14.9849 27.3926Z" fill="#D43345"/>
<path d="M10.9073 8.31232H10.2504C10.0218 8.31232 9.65054 8.39792 9.33652 8.73964C9.02226 9.08159 8.13672 9.90808 8.13672 11.589C8.13672 13.2699 9.36513 14.894 9.53633 15.1222C9.70776 15.3502 11.9075 18.9098 15.3916 20.2792C18.2872 21.4172 18.8765 21.1908 19.5048 21.1338C20.1333 21.0771 21.5329 20.3076 21.8186 19.5099C22.1042 18.7122 22.1042 18.0283 22.0186 17.8855C21.9328 17.7432 21.7041 17.6578 21.3615 17.487C21.0186 17.3161 19.3387 16.4756 19.0244 16.3614C18.7101 16.2476 18.4817 16.1907 18.2531 16.5328C18.0244 16.8743 17.3513 17.6644 17.1512 17.8924C16.9514 18.1206 16.7514 18.1492 16.4085 17.9782C16.0656 17.8068 14.973 17.4397 13.6635 16.276C12.6443 15.3703 11.9371 14.2154 11.737 13.8735C11.5372 13.5317 11.7157 13.3468 11.8876 13.1763C12.0417 13.0234 12.2497 12.8142 12.4212 12.6148C12.5924 12.4153 12.6411 12.2729 12.7556 12.0449C12.8698 11.817 12.8125 11.6174 12.7269 11.4466C12.6411 11.2756 11.9833 9.58627 11.6784 8.91061H11.6787C11.4219 8.34161 11.1516 8.32239 10.9073 8.31232Z" fill="#D43345"/>
</svg>
